<svg width="336" height="140" viewBox="0 0 336 140" fill="none" xmlns="http://www.w3.org/2000/svg">
<path d="M179.34 109.815H184.199C184.783 109.775 185.368 109.856 185.919 110.052C186.47 110.248 186.975 110.555 187.402 110.954C187.83 111.353 188.171 111.836 188.404 112.373C188.637 112.909 188.757 113.487 188.757 114.072C188.757 114.657 188.637 115.236 188.404 115.772C188.171 116.308 187.83 116.791 187.402 117.19C186.975 117.59 186.47 117.897 185.919 118.093C185.368 118.289 184.783 118.369 184.199 118.329H180.683V123.821H179.3L179.34 109.815ZM183.982 117.124C184.394 117.163 184.809 117.111 185.199 116.973C185.589 116.834 185.943 116.612 186.239 116.323C186.534 116.033 186.763 115.683 186.908 115.296C187.054 114.909 187.114 114.495 187.084 114.082C187.114 113.675 187.056 113.266 186.912 112.884C186.768 112.501 186.542 112.155 186.25 111.869C185.959 111.583 185.608 111.364 185.223 111.228C184.838 111.092 184.428 111.041 184.022 111.079H180.722V117.124H183.982Z" fill="white"/>
<path d="M196.171 117.697H196.724V117.421C196.782 117.078 196.759 116.727 196.658 116.395C196.556 116.063 196.378 115.759 196.138 115.508C195.899 115.257 195.603 115.065 195.277 114.948C194.95 114.83 194.6 114.791 194.255 114.833C193.23 114.837 192.233 115.169 191.41 115.781L190.778 114.734C191.817 113.982 193.071 113.587 194.354 113.608C194.877 113.552 195.406 113.618 195.899 113.801C196.393 113.983 196.837 114.277 197.199 114.659C197.56 115.041 197.828 115.502 197.982 116.005C198.137 116.508 198.173 117.04 198.088 117.559V123.979H196.764V122.873C196.749 122.596 196.749 122.32 196.764 122.043C196.477 122.692 196.006 123.242 195.409 123.625C194.811 124.008 194.115 124.207 193.406 124.196C192.984 124.234 192.56 124.186 192.158 124.055C191.756 123.924 191.385 123.712 191.067 123.433C190.749 123.154 190.492 122.814 190.309 122.432C190.127 122.051 190.025 121.636 190.008 121.213C190.027 117.756 194.433 117.697 196.171 117.697ZM193.603 122.972C194.498 122.872 195.319 122.429 195.893 121.736C196.468 121.044 196.752 120.155 196.685 119.258V118.823H196.112C194.532 118.823 191.39 118.823 191.371 121.075C191.379 121.351 191.446 121.622 191.566 121.871C191.685 122.119 191.856 122.34 192.066 122.519C192.277 122.697 192.522 122.83 192.787 122.908C193.051 122.986 193.329 123.008 193.603 122.972Z" fill="white"/>
<path d="M201.228 113.904H202.572V115.682C202.572 116.117 202.572 116.472 202.572 116.472C202.737 115.743 203.138 115.088 203.713 114.609C204.288 114.13 205.005 113.855 205.752 113.825C205.93 113.808 206.109 113.808 206.286 113.825V115.149C206.115 115.138 205.943 115.138 205.772 115.149C205.07 115.204 204.404 115.486 203.877 115.953C203.349 116.42 202.988 117.046 202.848 117.737C202.657 118.377 202.563 119.043 202.572 119.712V123.94H201.209L201.228 113.904Z" fill="white"/>
<path d="M208.716 115.188H207.432V114.043H208.775V111.158H210.099V114.062H212.608V115.208H210.099V120.186C210.099 122.557 211.581 122.853 212.331 122.853C212.482 122.868 212.635 122.868 212.786 122.853V124.078C212.595 124.093 212.403 124.093 212.213 124.078C211.722 124.117 211.229 124.044 210.77 123.865C210.311 123.685 209.899 123.405 209.565 123.044C209.23 122.682 208.982 122.25 208.838 121.779C208.695 121.308 208.66 120.811 208.736 120.325L208.716 115.188Z" fill="white"/>
<path d="M224.955 113.746C225.994 113.758 227.007 114.078 227.864 114.665C228.722 115.252 229.386 116.08 229.773 117.045C230.16 118.009 230.252 119.067 230.037 120.084C229.823 121.101 229.312 122.031 228.569 122.758C227.826 123.484 226.884 123.974 225.862 124.166C224.841 124.357 223.786 124.241 222.83 123.832C221.874 123.424 221.061 122.741 220.493 121.871C219.926 121 219.629 119.981 219.641 118.942C219.643 118.25 219.783 117.566 220.053 116.929C220.322 116.292 220.716 115.715 221.21 115.231C221.705 114.748 222.29 114.368 222.933 114.113C223.576 113.858 224.263 113.733 224.955 113.746ZM224.955 123.051C225.484 123.051 226.008 122.945 226.495 122.739C226.982 122.533 227.423 122.231 227.792 121.852C228.16 121.472 228.449 121.023 228.64 120.53C228.831 120.036 228.922 119.51 228.906 118.981C228.906 117.933 228.49 116.928 227.749 116.188C227.008 115.447 226.003 115.03 224.955 115.03C223.907 115.03 222.902 115.447 222.161 116.188C221.42 116.928 221.004 117.933 221.004 118.981C220.988 119.507 221.077 120.03 221.266 120.52C221.455 121.011 221.74 121.459 222.105 121.838C222.469 122.217 222.905 122.519 223.388 122.728C223.87 122.936 224.39 123.046 224.915 123.051H224.955Z" fill="white"/>
<path d="M233.114 115.287H231.869V114.141H233.114V113.667C233.048 113.183 233.091 112.69 233.24 112.224C233.389 111.758 233.64 111.332 233.975 110.975C234.31 110.619 234.721 110.343 235.177 110.166C235.633 109.989 236.123 109.917 236.61 109.953C236.814 109.938 237.019 109.938 237.223 109.953V111.178C237.065 111.164 236.906 111.164 236.749 111.178C235.958 111.178 234.497 111.435 234.477 113.667V114.161H237.065V115.307H234.497V124.078H233.114V115.287Z" fill="white"/>
<path d="M244.967 110.092H252.356V111.336H246.429V116.551H251.585V117.796H246.429V124.078H245.046L244.967 110.092Z" fill="white"/>
<path d="M259.764 117.974H260.317V117.717C260.317 115.742 259.27 115.109 257.828 115.109C256.809 115.116 255.819 115.449 255.003 116.058L254.371 115.011C255.409 114.258 256.664 113.863 257.946 113.885C258.469 113.833 258.996 113.902 259.487 114.086C259.979 114.269 260.422 114.563 260.782 114.944C261.143 115.326 261.411 115.785 261.567 116.286C261.722 116.787 261.761 117.317 261.68 117.835V124.256H260.396V123.07C260.382 122.794 260.382 122.517 260.396 122.241C260.109 122.89 259.638 123.44 259.041 123.823C258.444 124.205 257.747 124.404 257.038 124.394C256.616 124.435 256.19 124.389 255.787 124.258C255.384 124.128 255.012 123.917 254.693 123.638C254.375 123.358 254.117 123.016 253.936 122.633C253.755 122.25 253.654 121.834 253.64 121.411C253.62 118.013 258.025 117.954 259.764 117.974ZM257.215 123.248C258.111 123.139 258.931 122.692 259.508 121.998C260.085 121.303 260.374 120.415 260.317 119.515V119.08H259.744C258.164 119.08 255.003 119.08 255.003 121.332C255.009 121.608 255.073 121.879 255.19 122.128C255.308 122.378 255.476 122.6 255.685 122.78C255.893 122.961 256.137 123.096 256.4 123.176C256.664 123.257 256.942 123.281 257.215 123.248Z" fill="white"/>
<path d="M269.385 113.944C270.063 113.92 270.74 114.035 271.372 114.284C272.004 114.532 272.578 114.907 273.059 115.386L272.348 116.393C271.566 115.627 270.52 115.188 269.424 115.169C268.376 115.169 267.371 115.585 266.63 116.326C265.889 117.067 265.473 118.072 265.473 119.12C265.46 119.647 265.552 120.171 265.745 120.662C265.938 121.153 266.227 121.6 266.595 121.977C266.963 122.355 267.403 122.655 267.889 122.859C268.375 123.064 268.897 123.169 269.424 123.169C270.025 123.164 270.618 123.037 271.168 122.796C271.718 122.554 272.214 122.204 272.625 121.767L273.237 122.833C272.718 123.347 272.101 123.751 271.422 124.019C270.742 124.287 270.016 124.415 269.286 124.394C267.892 124.394 266.556 123.84 265.57 122.855C264.585 121.869 264.031 120.533 264.031 119.139C264.031 117.746 264.585 116.409 265.57 115.424C266.556 114.438 267.892 113.885 269.286 113.885L269.385 113.944Z" fill="white"/>
<path d="M275.786 114.201H277.129V124.236H275.786V114.201ZM275.786 110.25H277.208V111.949H275.786V110.25Z" fill="white"/>
<path d="M280.329 110.23H281.673V121.589C281.673 122.893 282.265 123.11 282.779 123.11H283.115V124.315C282.95 124.327 282.785 124.327 282.621 124.315C281.791 124.315 280.31 124.058 280.31 121.865L280.329 110.23Z" fill="white"/>
<path d="M285.327 114.24H286.691V124.275H285.327V114.24ZM285.327 110.289H286.75V111.988H285.327V110.289Z" fill="white"/>
<path d="M294.533 114.043C295.209 114.017 295.883 114.131 296.512 114.38C297.142 114.628 297.712 115.004 298.188 115.485L297.497 116.492C296.711 115.73 295.667 115.293 294.573 115.267C293.504 115.267 292.479 115.692 291.723 116.448C290.967 117.203 290.543 118.229 290.543 119.297C290.543 120.366 290.967 121.391 291.723 122.147C292.479 122.903 293.504 123.327 294.573 123.327C295.177 123.328 295.775 123.204 296.33 122.962C296.884 122.721 297.382 122.368 297.793 121.925L298.405 122.991C297.887 123.505 297.269 123.909 296.59 124.177C295.911 124.445 295.184 124.573 294.454 124.552C293.061 124.552 291.724 123.998 290.739 123.013C289.753 122.027 289.199 120.691 289.199 119.297C289.199 117.904 289.753 116.567 290.739 115.582C291.724 114.596 293.061 114.043 294.454 114.043H294.533Z" fill="white"/>
<path d="M305.478 114.082C306.518 114.094 307.531 114.414 308.389 115.002C309.247 115.59 309.911 116.42 310.297 117.385C310.683 118.351 310.774 119.41 310.558 120.427C310.343 121.445 309.83 122.375 309.084 123.101C308.339 123.826 307.396 124.315 306.373 124.504C305.35 124.693 304.294 124.574 303.339 124.162C302.384 123.751 301.572 123.065 301.007 122.192C300.442 121.319 300.148 120.298 300.164 119.258C300.169 118.568 300.311 117.886 300.581 117.251C300.852 116.616 301.246 116.042 301.74 115.56C302.234 115.079 302.819 114.7 303.461 114.447C304.102 114.193 304.788 114.069 305.478 114.082ZM305.478 123.367C306.007 123.367 306.531 123.261 307.018 123.055C307.505 122.849 307.946 122.547 308.314 122.168C308.683 121.788 308.971 121.339 309.163 120.846C309.354 120.353 309.445 119.826 309.429 119.297C309.519 118.733 309.486 118.156 309.331 117.606C309.176 117.055 308.904 116.545 308.533 116.11C308.162 115.676 307.701 115.327 307.182 115.087C306.664 114.848 306.099 114.724 305.527 114.724C304.956 114.724 304.391 114.848 303.872 115.087C303.353 115.327 302.892 115.676 302.521 116.11C302.15 116.545 301.878 117.055 301.724 117.606C301.569 118.156 301.535 118.733 301.626 119.297C301.594 120.342 301.977 121.357 302.691 122.119C303.406 122.882 304.394 123.331 305.438 123.367H305.478Z" fill="white"/>
<path d="M313.321 114.359H314.664V115.86C314.664 116.295 314.664 116.65 314.664 116.65C314.97 115.926 315.476 115.305 316.124 114.861C316.772 114.416 317.534 114.166 318.319 114.141C318.689 114.095 319.064 114.123 319.422 114.225C319.78 114.327 320.115 114.501 320.404 114.735C320.694 114.969 320.933 115.26 321.108 115.589C321.282 115.918 321.389 116.279 321.421 116.65C321.728 115.921 322.241 115.297 322.897 114.855C323.553 114.413 324.324 114.172 325.115 114.161C327.545 114.161 328.434 115.583 328.434 118.112V124.493H327.09V118.389C327.09 116.769 326.754 115.406 324.937 115.406C324.175 115.467 323.453 115.773 322.879 116.279C322.306 116.784 321.912 117.462 321.756 118.211C321.607 118.683 321.54 119.178 321.559 119.673V124.453H320.215V118.369C320.215 116.848 319.998 115.386 318.102 115.366C317.309 115.438 316.56 115.764 315.966 116.293C315.372 116.823 314.964 117.53 314.802 118.31C314.706 118.744 314.659 119.188 314.664 119.633V124.453H313.301L313.321 114.359Z" fill="white"/>
<path d="M51.4629 47.7268C49.6838 45.3253 47.5053 43.2472 45.0226 41.5832L43.8965 46.107C44.9305 46.9215 45.8892 47.8272 46.7611 48.8133L46.9389 49.0109L46.7611 49.2084C44.7807 51.4732 42.3389 53.2882 39.5995 54.5318C36.86 55.7754 33.8863 56.4188 30.8777 56.4188C27.8692 56.4188 24.8954 55.7754 22.156 54.5318C19.4165 53.2882 16.9747 51.4732 14.9944 49.2084L14.8166 49.0109L14.9944 48.8133C15.8412 47.8307 16.7733 46.9251 17.7799 46.107L16.6538 41.5832C14.1658 43.2406 11.9864 45.3197 10.2136 47.7268C9.94524 48.0975 9.80078 48.5434 9.80078 49.001C9.80078 49.4586 9.94524 49.9045 10.2136 50.2752C13.3164 54.5289 17.6662 57.7116 22.6595 59.382H22.8175L23.7065 63.2143H37.9699L38.8194 59.382H38.9774C43.9653 57.7011 48.3121 54.5205 51.4233 50.2752C51.6975 49.9087 51.8489 49.465 51.8559 49.0074C51.863 48.5498 51.7255 48.1016 51.4629 47.7268Z" fill="white"/>
<path d="M25.9192 49.0109C25.9192 49.9915 26.21 50.9502 26.7549 51.7656C27.2997 52.581 28.0742 53.2165 28.9802 53.5918C29.8863 53.9671 30.8833 54.0653 31.8452 53.874C32.807 53.6826 33.6906 53.2104 34.3841 52.517C35.0775 51.8235 35.5498 50.94 35.7411 49.9782C35.9325 49.0164 35.8343 48.0194 35.459 47.1134C35.0836 46.2074 34.4481 45.433 33.6327 44.8881C32.8172 44.3433 31.8585 44.0525 30.8778 44.0525C29.5627 44.0525 28.3015 44.5749 27.3715 45.5048C26.4416 46.4346 25.9192 47.6958 25.9192 49.0109Z" fill="white"/>
<path d="M37.7922 52.3494C38.8304 51.9391 39.8234 51.4228 40.7555 50.8085L48.875 14.2232H39.5109L36.5476 43.855C37.8427 45.2805 38.5488 47.1443 38.5231 49.0701C38.5174 50.203 38.2681 51.3213 37.7922 52.3494Z" fill="white"/>
<path d="M23.9634 52.3494C23.4655 51.3063 23.2025 50.1667 23.1929 49.0109C23.1673 47.0851 23.8734 45.2212 25.1685 43.7957L22.2052 14.164H12.8806L20.9803 50.7493C21.9191 51.3803 22.9184 51.9163 23.9634 52.3494Z" fill="white"/>
<path d="M34.3548 42.1758L36.3303 14.2232H25.4648L27.4404 42.1758C28.5132 41.6372 29.6971 41.3567 30.8976 41.3567C32.0981 41.3567 33.2819 41.6372 34.3548 42.1758Z" fill="white"/>
<path d="M48.5785 11.8724L45.1608 7.2894H37.8711L39.412 11.8724H48.5785Z" fill="white"/>
<path d="M35.1646 7.2894H26.5907L25.5239 11.8724H36.2314L35.1646 7.2894Z" fill="white"/>
<path d="M23.8844 7.2894H16.5353L13.0979 11.8724H22.3434L23.8844 7.2894Z" fill="white"/>
<path d="M70.3687 76.5684H63.9087V73.5064H80.3847V76.5684H73.9444V93.1621H70.3687V76.5684Z" fill="white"/>
<path d="M81.333 79.0179H84.7112V81.4675C84.7293 81.7965 84.7293 82.1262 84.7112 82.4552C84.9748 81.4511 85.5518 80.5572 86.3582 79.9036C87.1647 79.2499 88.1587 78.8704 89.1957 78.8204C89.406 78.802 89.6175 78.802 89.8278 78.8204V82.2774C89.8278 82.2774 89.4722 82.2774 88.9981 82.2774C88.1176 82.2715 87.2604 82.5598 86.5624 83.0966C85.8645 83.6335 85.3659 84.3881 85.1458 85.2406C84.9611 86.0029 84.8944 86.7891 84.9483 87.5716V93.1621H81.333V79.0179Z" fill="white"/>
<path d="M98.2833 84.3121H98.7772V84.1146C98.7772 82.2577 97.6314 81.6255 96.0707 81.6255C94.6542 81.6962 93.2856 82.1614 92.1196 82.9688L90.875 80.46C92.4879 79.3066 94.4236 78.6913 96.4065 78.7018C97.1842 78.5954 97.9759 78.6651 98.723 78.9059C99.4701 79.1467 100.153 79.5525 100.723 80.0931C101.292 80.6337 101.732 81.2953 102.011 82.029C102.289 82.7628 102.4 83.5498 102.333 84.3319V93.1621H98.9945V91.9966C98.9745 91.6677 98.9745 91.3378 98.9945 91.0089C98.5957 91.7927 97.979 92.4446 97.2185 92.8862C96.4579 93.3278 95.586 93.5402 94.7075 93.498C94.0979 93.5469 93.4848 93.4695 92.9065 93.2706C92.3281 93.0718 91.7971 92.7557 91.3465 92.3422C90.8959 91.9288 90.5355 91.4267 90.2878 90.8676C90.0401 90.3085 89.9105 89.7042 89.907 89.0927C89.907 84.6084 95.9719 84.3121 98.2833 84.3121ZM95.5965 90.7521C96.4936 90.6395 97.3166 90.1966 97.9047 89.5099C98.4928 88.8232 98.8039 87.9419 98.7772 87.0382V86.7222H98.1647C96.367 86.7222 93.463 86.9592 93.463 88.9347C93.4829 89.1944 93.554 89.4476 93.6722 89.6797C93.7904 89.9119 93.9533 90.1183 94.1516 90.2872C94.3499 90.4561 94.5797 90.5842 94.8277 90.664C95.0756 90.7437 95.3369 90.7737 95.5965 90.7521Z" fill="white"/>
<path d="M115.115 81.8428H109.01V93.1621H105.494V81.8428H103.755V79.0179H105.494V78.6228C105.494 74.0003 109.287 73.3879 111.262 73.3879C111.657 73.3582 112.053 73.3582 112.448 73.3879V76.3906C112.211 76.3692 111.973 76.3692 111.737 76.3906C110.729 76.3906 109.01 76.6474 109.01 78.6821V79.0179H115.115V78.6228C115.115 74.0003 118.908 73.3879 120.864 73.3879C121.265 73.358 121.667 73.358 122.069 73.3879V76.3906C121.825 76.3703 121.581 76.3703 121.338 76.3906C120.35 76.3906 118.631 76.6474 118.631 78.6821V79.0179H127.521V93.1424H124.005V81.8428H118.631V93.1621H115.115V81.8428ZM124.005 73.5064H127.482V76.6276H124.005V73.5064Z" fill="white"/>
<path d="M136.925 78.7018C137.928 78.6542 138.93 78.8177 139.866 79.1818C140.801 79.5459 141.65 80.1025 142.357 80.8156L140.816 83.2256C139.814 82.2809 138.499 81.7393 137.122 81.7045C136.549 81.6905 135.978 81.7944 135.447 82.0098C134.915 82.2253 134.433 82.5477 134.031 82.957C133.629 83.3664 133.316 83.8539 133.11 84.3895C132.904 84.925 132.811 85.4971 132.835 86.0703C132.816 86.6557 132.917 87.2389 133.131 87.7841C133.345 88.3294 133.668 88.8252 134.081 89.2412C134.493 89.6573 134.986 89.9848 135.529 90.2039C136.073 90.4229 136.655 90.5288 137.241 90.515C138.797 90.428 140.27 89.7827 141.389 88.6976L142.753 91.2064C141.97 91.9681 141.042 92.5638 140.023 92.9576C139.005 93.3514 137.917 93.5352 136.826 93.4979C135.822 93.5498 134.818 93.3969 133.876 93.0486C132.933 92.7002 132.071 92.1637 131.342 91.4716C130.613 90.7795 130.033 89.9464 129.636 89.0229C129.24 88.0994 129.035 87.1049 129.035 86.0999C129.035 85.0949 129.24 84.1003 129.636 83.1769C130.033 82.2534 130.613 81.4203 131.342 80.7282C132.071 80.0361 132.933 79.4996 133.876 79.1512C134.818 78.8028 135.822 78.65 136.826 78.7018H136.925Z" fill="white"/>
<path d="M150.892 88.1247C152.25 89.3257 153.98 90.0232 155.791 90.1002C157.293 90.1002 158.636 89.3298 158.636 87.7297C158.636 84.2134 149.371 84.806 149.371 78.7809C149.415 77.9704 149.622 77.1773 149.98 76.4487C150.338 75.72 150.838 75.0709 151.452 74.54C152.066 74.009 152.781 73.6071 153.553 73.3583C154.326 73.1095 155.141 73.0188 155.949 73.0916C158.125 72.995 160.252 73.7537 161.876 75.2053L160.335 78.1092C159.12 77.0658 157.589 76.4606 155.989 76.3906C154.329 76.3906 153.025 77.3586 153.025 78.7414C153.025 82.2379 162.271 81.3687 162.271 87.6506C162.253 88.4643 162.067 89.2656 161.726 90.0044C161.384 90.7432 160.895 91.4038 160.287 91.945C159.679 92.4862 158.966 92.8964 158.192 93.15C157.419 93.4035 156.602 93.4951 155.791 93.4189C154.54 93.4654 153.292 93.2641 152.119 92.8268C150.946 92.3895 149.871 91.7247 148.956 90.8706L150.892 88.1247Z" fill="white"/>
<path d="M163.97 79.0179H167.486V87.3938C167.486 89.0927 167.921 90.2582 169.679 90.2582C170.259 90.225 170.825 90.0728 171.343 89.8112C171.861 89.5495 172.32 89.184 172.691 88.7374C173.061 88.2908 173.336 87.7726 173.498 87.2152C173.659 86.6578 173.704 86.073 173.63 85.4974V79.0179H177.147V93.1424H173.729V91.5423C173.71 91.2067 173.71 90.8703 173.729 90.5348C173.268 91.4336 172.565 92.1857 171.7 92.7058C170.834 93.226 169.84 93.4935 168.83 93.4782C165.807 93.4782 163.93 91.9571 163.93 88.105L163.97 79.0179Z" fill="white"/>
<path d="M179.873 79.0179H183.093V80.0451C183.113 80.3675 183.113 80.6908 183.093 81.0131C183.581 80.2539 184.264 79.6392 185.07 79.2328C185.876 78.8264 186.776 78.6431 187.676 78.7018C191.489 78.7018 193.939 81.7243 193.939 86.1098C193.939 90.4953 191.193 93.4979 187.479 93.4979C186.711 93.5026 185.954 93.3262 185.267 92.9829C184.58 92.6397 183.985 92.1393 183.528 91.5225C183.549 91.9239 183.549 92.3261 183.528 92.7275V98.6539H179.873V79.0179ZM186.807 90.515C188.783 90.515 190.343 88.9347 190.343 86.1295C190.343 83.3244 188.901 81.7045 186.827 81.7045C184.753 81.7045 183.291 83.0281 183.291 86.169C183.291 88.3815 184.476 90.5348 186.807 90.5348V90.515Z" fill="white"/>
<path d="M195.697 79.0179H198.897V80.0451C198.917 80.3675 198.917 80.6908 198.897 81.0131C199.38 80.2564 200.055 79.6416 200.853 79.232C201.652 78.8223 202.545 78.6326 203.441 78.6821C207.274 78.6821 209.704 81.7045 209.704 86.09C209.704 90.4755 206.958 93.4782 203.244 93.4782C202.476 93.4844 201.717 93.3087 201.031 92.9653C200.344 92.6219 199.748 92.1207 199.293 91.5027C199.314 91.9041 199.314 92.3064 199.293 92.7078V98.6341H195.697V79.0179ZM202.611 90.515C204.587 90.515 206.148 88.9347 206.148 86.1295C206.148 83.3244 204.725 81.7045 202.631 81.7045C200.537 81.7045 199.095 83.0281 199.095 86.169C199.095 88.3815 200.28 90.5348 202.611 90.5348V90.515Z" fill="white"/>
<path d="M218.198 78.7019C219.648 78.7676 221.045 79.2573 222.219 80.1103C223.392 80.9632 224.289 82.1418 224.799 83.4999C225.308 84.8579 225.408 86.3357 225.085 87.7499C224.763 89.1641 224.032 90.4525 222.984 91.4551C221.935 92.4578 220.616 93.1308 219.189 93.3904C217.762 93.6501 216.29 93.4851 214.955 92.9159C213.621 92.3466 212.483 91.3983 211.683 90.1884C210.883 88.9785 210.456 87.5603 210.454 86.1098C210.459 85.1097 210.665 84.1207 211.06 83.2019C211.455 82.2831 212.031 81.4532 212.754 80.7619C213.476 80.0705 214.331 79.5318 215.266 79.1779C216.202 78.8239 217.199 78.6621 218.198 78.7019ZM218.198 90.5545C219.076 90.59 219.945 90.3621 220.693 89.9001C221.44 89.4381 222.032 88.7631 222.393 87.9619C222.754 87.1608 222.867 86.27 222.718 85.4041C222.568 84.5382 222.163 83.7367 221.555 83.1027C220.946 82.4687 220.162 82.0311 219.303 81.8463C218.444 81.6614 217.549 81.7376 216.734 82.0652C215.919 82.3927 215.22 82.9566 214.727 83.6844C214.235 84.4122 213.972 85.2706 213.971 86.1493C213.949 86.72 214.044 87.2892 214.25 87.8221C214.455 88.3549 214.767 88.8404 215.166 89.2488C215.566 89.6573 216.044 89.9802 216.572 90.1979C217.1 90.4156 217.667 90.5235 218.238 90.515L218.198 90.5545Z" fill="white"/>
<path d="M227.701 79.0179H231.138V81.4675C231.156 81.7965 231.156 82.1262 231.138 82.4552C231.402 81.4511 231.979 80.5572 232.785 79.9036C233.592 79.2499 234.586 78.8704 235.623 78.8204C235.833 78.802 236.045 78.802 236.255 78.8204V82.2774C236.255 82.2774 235.899 82.2774 235.425 82.2774C234.528 82.249 233.648 82.527 232.93 83.0656C232.211 83.6042 231.698 84.3713 231.474 85.2406C231.26 85.9851 231.16 86.7577 231.178 87.5321V93.1226H227.661L227.701 79.0179Z" fill="white"/>
<path d="M238.072 82.0601H236.255V79.255H238.23V75.1855H241.668V79.255H244.868V82.0601H241.609V87.5518C241.586 87.9174 241.644 88.2834 241.778 88.6241C241.912 88.9649 242.119 89.2723 242.384 89.5245C242.65 89.7768 242.967 89.9679 243.315 90.0844C243.662 90.2009 244.03 90.24 244.394 90.199C244.604 90.2223 244.816 90.2223 245.026 90.199V93.2807C244.671 93.3109 244.314 93.3109 243.959 93.2807C241.984 93.2807 238.033 92.7078 238.033 87.9667L238.072 82.0601Z" fill="white"/>
<path d="M77.382 20.7224H64.0076V14.3813H98.1647V20.7422H84.7903V55.1347H77.4215L77.382 20.7224Z" fill="#E42313"/>
<path d="M97.2756 25.8191H104.289V30.8565C104.287 31.5495 104.247 32.242 104.17 32.9307H104.289C104.83 30.8495 106.024 28.9962 107.695 27.642C109.365 26.2877 111.425 25.5036 113.574 25.4043C114.018 25.4075 114.46 25.4472 114.897 25.5228V32.6937C114.321 32.6133 113.741 32.5737 113.159 32.5751C111.352 32.5961 109.601 33.2079 108.174 34.3173C106.747 35.4266 105.723 36.9725 105.257 38.7188C104.795 40.2563 104.569 41.8547 104.585 43.4599V55.0557H97.3151L97.2756 25.8191Z" fill="#E42313"/>
<path d="M119.52 14.322H126.751V20.8212H119.52V14.322ZM119.52 25.7993H126.81V55.0755H119.56L119.52 25.7993Z" fill="#E42313"/>
<path d="M143.681 60.903C148.146 60.903 151.939 58.9276 151.939 53.7717V52.053C151.939 51.3616 151.939 50.5122 151.939 50.5122C151.05 51.8331 149.826 52.8946 148.393 53.5887C146.959 54.2827 145.368 54.5844 143.78 54.4631C135.404 54.4631 130.623 47.6873 130.623 39.667C130.623 31.6467 135.147 25.0684 143.582 25.0684C149.944 25.0684 152.255 28.7823 152.255 28.7823H152.433C152.412 28.5127 152.412 28.2419 152.433 27.9723V25.6808H159.248L159.229 53.3371C159.229 63.3724 151.425 67.1652 143.8 67.1652C140.189 67.1401 136.633 66.2815 133.408 64.6564L135.581 59.0856C138.122 60.2582 140.883 60.8777 143.681 60.903ZM152.117 39.7065C152.117 33.0492 148.837 31.2713 144.866 31.2713C140.441 31.2713 137.992 34.5111 137.992 39.4497C137.992 44.3883 140.639 48.3392 145.341 48.3392C148.837 48.3194 152.117 46.3045 152.117 39.7065Z" fill="#E42313"/>
<path d="M164.918 14.2627H172.168V20.7422H164.938L164.918 14.2627ZM164.918 25.7401H172.208V55.0162H164.958L164.918 25.7401Z" fill="#E42313"/>
<path d="M191.865 25.0289C200.814 25.0289 208.005 31.3899 208.005 40.3387C208.005 49.2874 200.853 55.6879 191.944 55.6879C183.034 55.6879 175.823 49.3862 175.823 40.3782C175.823 31.3701 182.955 25.0487 191.865 25.0289ZM191.865 49.485C193.041 49.4839 194.205 49.2435 195.286 48.7783C196.366 48.3132 197.341 47.6331 198.151 46.7793C198.96 45.9255 199.587 44.916 199.994 43.8122C200.401 42.7083 200.579 41.5332 200.518 40.3584C200.598 39.1677 200.433 37.9731 200.032 36.8489C199.632 35.7247 199.005 34.6947 198.189 33.8229C197.374 32.951 196.389 32.256 195.294 31.7808C194.199 31.3055 193.019 31.0603 191.825 31.0603C190.632 31.0603 189.451 31.3055 188.356 31.7808C187.261 32.256 186.276 32.951 185.461 33.8229C184.646 34.6947 184.019 35.7247 183.618 36.8489C183.218 37.9731 183.052 39.1677 183.133 40.3584C183.076 41.5452 183.263 42.7311 183.681 43.8431C184.1 44.9551 184.742 45.9697 185.567 46.8246C186.392 47.6794 187.384 48.3564 188.48 48.8139C189.577 49.2714 190.756 49.4998 191.944 49.485H191.865Z" fill="#E42313"/>
<path d="M211.561 25.6808H218.554V29.0588C218.554 30.1453 218.554 31.0343 218.554 31.0343C219.544 29.1491 221.042 27.5784 222.879 26.4997C224.715 25.4211 226.816 24.8774 228.945 24.9301C235.425 24.9301 239.119 28.3082 239.119 36.0717V54.8977H231.889V37.5335C231.889 33.9777 230.96 31.6072 227.227 31.6072C225.442 31.5919 223.702 32.1638 222.274 33.2346C220.846 34.3055 219.81 35.816 219.324 37.5335C218.944 38.8148 218.771 40.1485 218.811 41.4844V54.9174H211.58L211.561 25.6808Z" fill="#E42313"/>
</svg>
