<svg width="50" height="50" viewBox="0 0 50 50" fill="none" xmlns="http://www.w3.org/2000/svg">
<path d="M41.7682 22.1438L32.0391 17.9563L29.8724 17.0396C29.695 16.9413 29.5449 16.8003 29.4357 16.6293C29.3266 16.4583 29.2619 16.2628 29.2474 16.0605V9.68547C29.2474 7.68547 27.7682 5.31047 25.9766 4.3938C25.3516 4.0813 24.6016 4.0813 23.9766 4.3938C22.2057 5.31047 20.7266 7.7063 20.7266 9.7063V16.0813C20.7266 16.4563 20.4349 16.8938 20.1016 17.0605L8.22656 22.1646C6.91406 22.7063 5.85156 24.3521 5.85156 25.7688V28.5188C5.85156 30.2896 7.1849 31.1646 8.83073 30.4563L19.2682 25.9563C20.0807 25.6021 20.7474 26.0396 20.7474 26.9355V32.998C20.7474 33.4771 20.4766 34.1646 20.1432 34.498L15.3099 39.3521C14.8099 39.8521 14.5807 40.8313 14.8099 41.5396L15.7474 44.373C16.1224 45.6021 17.5182 46.1855 18.6641 45.6021L23.6224 41.4355C24.3724 40.7896 25.6016 40.7896 26.3516 41.4355L31.3099 45.6021C32.4557 46.1646 33.8516 45.6021 34.2682 44.373L35.2057 41.5396C35.4349 40.8521 35.2057 39.8521 34.7057 39.3521L29.8724 34.498C29.5182 34.1646 29.2474 33.4771 29.2474 32.998V26.9355C29.2474 26.0396 29.8932 25.623 30.7266 25.9563L41.1641 30.4563C42.8099 31.1646 44.1432 30.2896 44.1432 28.5188V25.7688C44.1432 24.3521 43.0807 22.7063 41.7682 22.1438Z" fill="white"/>
</svg>
