<svg width="50" height="50" viewBox="0 0 50 50" fill="none" xmlns="http://www.w3.org/2000/svg">
<path d="M8.33398 28.125V39.375C8.33398 42.9166 11.2298 45.8333 14.7923 45.8333H35.209C38.7506 45.8333 41.6673 42.9375 41.6673 39.375V28.125C41.6673 27.5416 41.209 27.0833 40.6256 27.0833H9.37565C8.79232 27.0833 8.33398 27.5416 8.33398 28.125ZM18.5007 38.2916C18.0215 38.7916 17.3548 39.0625 16.6673 39.0625C16.5007 39.0625 16.334 39.0416 16.1673 39.0208C16.0007 38.9791 15.834 38.9375 15.6673 38.8541C15.5152 38.7903 15.3689 38.7137 15.2298 38.625C15.084 38.5208 14.9382 38.4166 14.834 38.2916C14.334 37.8125 14.0632 37.1458 14.0632 36.4583C14.0632 35.7708 14.334 35.1041 14.834 34.625C14.9382 34.5 15.084 34.3958 15.2298 34.2916C15.3548 34.2083 15.5215 34.125 15.6673 34.0625C15.834 33.9791 16.0007 33.9375 16.1673 33.8958C17.0007 33.7291 17.8965 34.0208 18.5007 34.625C19.0007 35.1041 19.2715 35.7708 19.2715 36.4583C19.2715 37.1458 19.0007 37.8125 18.5007 38.2916ZM35.1673 38.2916C35.0631 38.4166 34.9173 38.5208 34.7715 38.625C34.6465 38.7083 34.4798 38.7916 34.334 38.8541C34.1673 38.9375 34.0007 38.9791 33.8548 39.0208C33.6673 39.0416 33.5007 39.0625 33.334 39.0625C33.1673 39.0625 33.0007 39.0416 32.834 39.0208C32.6673 38.9791 32.5007 38.9375 32.334 38.8541C32.1819 38.7903 32.0355 38.7137 31.8965 38.625C31.7507 38.5208 31.6048 38.4166 31.5007 38.2916C31.0007 37.8125 30.7298 37.1458 30.7298 36.4583C30.7298 35.7708 31.0007 35.1041 31.5007 34.625C31.6048 34.5 31.7507 34.3958 31.8965 34.2916C32.0215 34.2083 32.1882 34.125 32.334 34.0625C32.5007 33.9791 32.6673 33.9375 32.834 33.8958C33.1673 33.8333 33.5007 33.8333 33.8548 33.8958C34.0007 33.9375 34.1673 33.9791 34.334 34.0625C34.4798 34.125 34.6465 34.2083 34.7715 34.2916C34.9173 34.3958 35.0631 34.5 35.1673 34.625C35.6673 35.1041 35.9382 35.7708 35.9382 36.4583C35.9382 37.1458 35.6673 37.8125 35.1673 38.2916ZM35.209 4.16663H14.7923C11.2298 4.16663 8.33398 7.06246 8.33398 10.625V15.625C8.33398 16.2083 8.79232 16.6666 9.37565 16.6666H40.6256C41.209 16.6666 41.6673 16.2083 41.6673 15.625V10.625C41.6673 7.06246 38.7715 4.16663 35.209 4.16663ZM30.209 11.9791H19.7923C18.9382 11.9791 18.2298 11.2708 18.2298 10.4166C18.2298 9.56246 18.9382 8.85413 19.7923 8.85413H30.209C31.0632 8.85413 31.7715 9.56246 31.7715 10.4166C31.7715 11.2708 31.0632 11.9791 30.209 11.9791ZM40.6256 25H9.37565C8.79232 25 8.33398 24.5416 8.33398 23.9583V19.7916C8.33398 19.2083 8.79232 18.75 9.37565 18.75H40.6256C41.209 18.75 41.6673 19.2083 41.6673 19.7916V23.9583C41.6673 24.5416 41.209 25 40.6256 25Z" fill="white"/>
</svg>
