<svg width="60" height="60" viewBox="0 0 60 60" fill="none" xmlns="http://www.w3.org/2000/svg">
<path d="M42.4246 36.1C45.8496 36.675 49.6246 36.075 52.2746 34.3C55.7996 31.95 55.7996 28.1 52.2746 25.75C49.5996 23.975 45.7746 23.375 42.3496 23.975M17.4996 36.1C14.0746 36.675 10.2996 36.075 7.64961 34.3C4.12461 31.95 4.12461 28.1 7.64961 25.75C10.3246 23.975 14.1496 23.375 17.5746 23.975M44.9996 17.9C44.8423 17.875 44.682 17.875 44.5246 17.9C42.8562 17.8397 41.2766 17.133 40.1196 15.9294C38.9627 14.7258 38.319 13.1195 38.3246 11.45C38.3246 7.875 41.1996 5 44.7746 5C46.4853 5 48.1258 5.67955 49.3354 6.88916C50.5451 8.09877 51.2246 9.73935 51.2246 11.45C51.22 13.1207 50.5696 14.7249 49.4094 15.927C48.2492 17.1292 46.6691 17.8361 44.9996 17.9ZM14.9246 17.9C15.0746 17.875 15.2496 17.875 15.3996 17.9C17.068 17.8397 18.6476 17.133 19.8046 15.9294C20.9616 14.7258 21.6052 13.1195 21.5996 11.45C21.5996 7.875 18.7246 5 15.1496 5C13.439 5 11.7984 5.67955 10.5888 6.88916C9.37916 8.09877 8.69961 9.73935 8.69961 11.45C8.72461 14.95 11.4746 17.775 14.9246 17.9ZM29.9996 36.575C29.8423 36.55 29.682 36.55 29.5246 36.575C27.8562 36.5147 26.2766 35.808 25.1196 34.6044C23.9627 33.4008 23.319 31.7945 23.3246 30.125C23.3246 26.55 26.1996 23.675 29.7746 23.675C31.4853 23.675 33.1258 24.3546 34.3355 25.5642C35.5451 26.7738 36.2246 28.4144 36.2246 30.125C36.1996 33.625 33.4496 36.475 29.9996 36.575ZM22.7246 44.45C19.1996 46.8 19.1996 50.65 22.7246 53C26.7246 55.675 33.2746 55.675 37.2746 53C40.7996 50.65 40.7996 46.8 37.2746 44.45C33.2996 41.8 26.7246 41.8 22.7246 44.45Z" stroke="white" stroke-width="1.5" stroke-linecap="round" stroke-linejoin="round"/>
</svg>
