<svg width="70" height="70" viewBox="0 0 70 70" fill="none" xmlns="http://www.w3.org/2000/svg">
<path d="M64.1673 47.221C64.1673 57.8377 57.8382 64.1668 47.2215 64.1668H43.7506C42.1465 64.1668 40.834 62.8543 40.834 61.2502V44.421C40.834 43.6335 41.4756 42.9627 42.2631 42.9627L47.3965 42.8752C47.8048 42.846 48.1548 42.5543 48.2423 42.146L49.2631 36.5752C49.283 36.4489 49.2752 36.3198 49.2403 36.1969C49.2054 36.0739 49.1443 35.96 49.0611 35.8629C48.9779 35.7659 48.8747 35.6881 48.7585 35.6348C48.6423 35.5815 48.516 35.554 48.3881 35.5543L42.1756 35.6418C41.359 35.6418 40.7173 35.0002 40.6881 34.2127L40.5715 27.0668C40.5715 26.6002 40.9506 26.1918 41.4465 26.1918L48.4465 26.0752C48.9423 26.0752 49.3215 25.696 49.3215 25.2002L49.2048 18.2002C49.2048 17.7043 48.8256 17.3252 48.3298 17.3252L40.4548 17.4418C39.3052 17.4593 38.1704 17.7034 37.1154 18.1603C36.0603 18.6171 35.1058 19.2776 34.3065 20.104C33.5072 20.9304 32.8788 21.9065 32.4574 22.9761C32.036 24.0458 31.8298 25.1881 31.8507 26.3377L31.9965 34.3585C32.0257 35.1752 31.384 35.8168 30.5673 35.846L27.0673 35.9043C26.5715 35.9043 26.1923 36.2835 26.1923 36.7793L26.2798 42.321C26.2798 42.8168 26.659 43.196 27.1548 43.196L30.6548 43.1377C31.4715 43.1377 32.1132 43.7793 32.1423 44.5668L32.4048 61.1918C32.434 62.8252 31.1215 64.1668 29.4881 64.1668H22.7798C12.1632 64.1668 5.83398 57.8377 5.83398 47.1918V22.7793C5.83398 12.1627 12.1632 5.8335 22.7798 5.8335H47.2215C57.8382 5.8335 64.1673 12.1627 64.1673 22.7793V47.221Z" fill="black"/>
</svg>
