<svg width="70" height="70" viewBox="0 0 70 70" fill="none" xmlns="http://www.w3.org/2000/svg">
<path d="M47.2215 5.8335H22.7798C12.1632 5.8335 5.83398 12.1627 5.83398 22.7793V47.1918C5.83398 57.8377 12.1632 64.1668 22.7798 64.1668H47.1923C57.809 64.1668 64.1382 57.8377 64.1382 47.221V22.7793C64.1673 12.1627 57.8382 5.8335 47.2215 5.8335ZM35.0007 46.3168C28.759 46.3168 23.684 41.2418 23.684 35.0002C23.684 28.7585 28.759 23.6835 35.0007 23.6835C41.2423 23.6835 46.3173 28.7585 46.3173 35.0002C46.3173 41.2418 41.2423 46.3168 35.0007 46.3168ZM52.2673 20.0668C52.1215 20.4168 51.9173 20.7377 51.6548 21.0293C51.3631 21.2918 51.0423 21.496 50.6923 21.6418C50.1615 21.8671 49.5756 21.9292 49.0094 21.8201C48.4431 21.711 47.9223 21.4357 47.5132 21.0293C47.2507 20.7377 47.0465 20.4168 46.9007 20.0668C46.7508 19.7163 46.6715 19.3397 46.6673 18.9585C46.6673 18.5793 46.7548 18.2002 46.9007 17.8502C47.0465 17.471 47.2507 17.1793 47.5132 16.8877C48.184 16.2168 49.2048 15.896 50.1382 16.1002C50.3423 16.1293 50.5173 16.1877 50.6923 16.2752C50.8673 16.3335 51.0423 16.421 51.2173 16.5377C51.3632 16.6252 51.509 16.771 51.6548 16.8877C51.9173 17.1793 52.1215 17.471 52.2673 17.8502C52.4132 18.2002 52.5007 18.5793 52.5007 18.9585C52.5007 19.3377 52.4132 19.7168 52.2673 20.0668Z" fill="black"/>
</svg>
