<svg width="70" height="70" viewBox="0 0 70 70" fill="none" xmlns="http://www.w3.org/2000/svg">
<path d="M64.1074 33.2792C63.1157 16.3625 47.7449 3.32501 30.0407 6.24168C17.8491 8.25418 8.07824 18.1417 6.1824 30.3333C5.07407 37.3917 6.5324 44.0708 9.71157 49.5833L7.11574 59.2375C6.53241 61.425 8.54491 63.4083 10.7032 62.7958L20.2116 60.1708C24.5282 62.7083 29.5741 64.1667 34.9699 64.1667C51.4199 64.1667 65.0699 49.6708 64.1074 33.2792ZM49.2324 45.85C48.529 47.2929 47.3272 48.4325 45.8491 49.0583C44.9741 49.4375 44.0116 49.6125 42.9907 49.6125C41.5032 49.6125 39.8991 49.2625 38.2366 48.5333C36.4647 47.7554 34.7826 46.7872 33.2199 45.6458C31.5282 44.4208 29.9532 43.05 28.4366 41.5625C26.9199 40.0458 25.5782 38.4417 24.3532 36.7792C23.1574 35.1167 22.1949 33.4542 21.4949 31.7917C20.7949 30.1292 20.4449 28.525 20.4449 27.0083C20.4449 26.0167 20.6199 25.0542 20.9699 24.1792C21.3199 23.275 21.8741 22.4583 22.6616 21.7292C23.5949 20.7958 24.6157 20.3583 25.6949 20.3583C26.1032 20.3583 26.5116 20.4458 26.8907 20.6208C27.2699 20.7958 27.6199 21.0583 27.8824 21.4375L31.2657 26.2208C31.5282 26.6 31.7324 26.9208 31.8491 27.2417C31.9949 27.5625 32.0532 27.8542 32.0532 28.1458C32.0532 28.4958 31.9366 28.8458 31.7324 29.1958C31.5282 29.5458 31.2657 29.8958 30.9157 30.2458L29.8074 31.4125C29.6324 31.5875 29.5741 31.7625 29.5741 31.9958C29.5741 32.1125 29.6032 32.2292 29.6324 32.3458C29.6907 32.4625 29.7199 32.55 29.7491 32.6375C30.0116 33.1333 30.4782 33.7458 31.1199 34.5042C32.4854 36.1088 33.9777 37.6011 35.5824 38.9667C36.3407 39.6083 36.9824 40.0458 37.4782 40.3083C37.5657 40.3375 37.6532 40.3958 37.7407 40.425C37.8574 40.4833 37.9741 40.4833 38.1199 40.4833C38.3824 40.4833 38.5574 40.3958 38.7324 40.2208L39.8407 39.1125C40.2199 38.7333 40.5699 38.4708 40.8907 38.2958C41.2407 38.0917 41.5616 37.975 41.9407 37.975C42.2324 37.975 42.5241 38.0333 42.8449 38.1792C43.1657 38.325 43.5157 38.5 43.8657 38.7625L48.7074 42.2042C49.0866 42.4667 49.3491 42.7875 49.5241 43.1375C49.6699 43.5167 49.7574 43.8667 49.7574 44.275C49.5824 44.7708 49.4657 45.325 49.2324 45.85Z" fill="black"/>
</svg>
