<svg width="78" height="78" viewBox="0 0 78 78" fill="none" xmlns="http://www.w3.org/2000/svg">
<circle cx="39" cy="39" r="39" fill="#004D80"/>
<path d="M22.334 41.2325V54.0435C22.334 58.0766 25.2298 61.398 28.7923 61.398H49.209C52.7506 61.398 55.6673 58.1004 55.6673 54.0435V41.2325C55.6673 40.5682 55.209 40.0463 54.6256 40.0463H23.3757C22.7923 40.0463 22.334 40.5682 22.334 41.2325ZM32.5007 52.8099C32.0215 53.3793 31.3548 53.6877 30.6673 53.6877C30.5007 53.6877 30.334 53.664 30.1673 53.6402C30.0007 53.5928 29.834 53.5453 29.6673 53.4504C29.5152 53.3778 29.3689 53.2905 29.2298 53.1895C29.084 53.0709 28.9382 52.9522 28.834 52.8099C28.334 52.2642 28.0632 51.5051 28.0632 50.7222C28.0632 49.9393 28.334 49.1801 28.834 48.6344C28.9382 48.4921 29.084 48.3735 29.2298 48.2548C29.3548 48.1599 29.5215 48.0651 29.6673 47.9939C29.834 47.899 30.0007 47.8515 30.1673 47.8041C31.0007 47.6143 31.8965 47.9464 32.5007 48.6344C33.0007 49.1801 33.2715 49.9393 33.2715 50.7222C33.2715 51.5051 33.0007 52.2642 32.5007 52.8099ZM49.1673 52.8099C49.0631 52.9522 48.9173 53.0709 48.7715 53.1895C48.6465 53.2844 48.4798 53.3793 48.334 53.4504C48.1673 53.5453 48.0007 53.5928 47.8548 53.6402C47.6673 53.664 47.5007 53.6877 47.334 53.6877C47.1673 53.6877 47.0007 53.664 46.834 53.6402C46.6673 53.5928 46.5007 53.5453 46.334 53.4504C46.1819 53.3778 46.0355 53.2905 45.8965 53.1895C45.7507 53.0709 45.6048 52.9522 45.5007 52.8099C45.0007 52.2642 44.7298 51.5051 44.7298 50.7222C44.7298 49.9393 45.0007 49.1801 45.5007 48.6344C45.6048 48.4921 45.7507 48.3735 45.8965 48.2548C46.0215 48.1599 46.1882 48.0651 46.334 47.9939C46.5007 47.899 46.6673 47.8515 46.834 47.8041C47.1673 47.7329 47.5007 47.7329 47.8548 47.8041C48.0007 47.8515 48.1673 47.899 48.334 47.9939C48.4798 48.0651 48.6465 48.1599 48.7715 48.2548C48.9173 48.3735 49.0631 48.4921 49.1673 48.6344C49.6673 49.1801 49.9382 49.9393 49.9382 50.7222C49.9382 51.5051 49.6673 52.2642 49.1673 52.8099ZM49.209 13.9497H28.7923C25.2298 13.9497 22.334 17.2474 22.334 21.3042V26.998C22.334 27.6623 22.7923 28.1842 23.3757 28.1842H54.6256C55.209 28.1842 55.6673 27.6623 55.6673 26.998V21.3042C55.6673 17.2474 52.7715 13.9497 49.209 13.9497ZM44.209 22.8463H33.7923C32.9382 22.8463 32.2298 22.0396 32.2298 21.067C32.2298 20.0943 32.9382 19.2876 33.7923 19.2876H44.209C45.0632 19.2876 45.7715 20.0943 45.7715 21.067C45.7715 22.0396 45.0632 22.8463 44.209 22.8463ZM54.6256 37.6739H23.3757C22.7923 37.6739 22.334 37.1519 22.334 36.4877V31.7428C22.334 31.0786 22.7923 30.5566 23.3757 30.5566H54.6256C55.209 30.5566 55.6673 31.0786 55.6673 31.7428V36.4877C55.6673 37.1519 55.209 37.6739 54.6256 37.6739Z" fill="white"/>
</svg>
