<svg width="78" height="78" viewBox="0 0 78 78" fill="none" xmlns="http://www.w3.org/2000/svg">
<circle cx="39" cy="39" r="39" fill="#579DCB"/>
<path d="M55.7682 36.1438L46.0391 31.9563L43.8724 31.0396C43.695 30.9413 43.5449 30.8003 43.4357 30.6293C43.3266 30.4583 43.2619 30.2628 43.2474 30.0605V23.6855C43.2474 21.6855 41.7682 19.3105 39.9766 18.3938C39.3516 18.0813 38.6016 18.0813 37.9766 18.3938C36.2057 19.3105 34.7266 21.7063 34.7266 23.7063V30.0813C34.7266 30.4563 34.4349 30.8938 34.1016 31.0605L22.2266 36.1646C20.9141 36.7063 19.8516 38.3521 19.8516 39.7688V42.5188C19.8516 44.2896 21.1849 45.1646 22.8307 44.4563L33.2682 39.9563C34.0807 39.6021 34.7474 40.0396 34.7474 40.9355V46.998C34.7474 47.4771 34.4766 48.1646 34.1432 48.498L29.3099 53.3521C28.8099 53.8521 28.5807 54.8313 28.8099 55.5396L29.7474 58.373C30.1224 59.6021 31.5182 60.1855 32.6641 59.6021L37.6224 55.4355C38.3724 54.7896 39.6016 54.7896 40.3516 55.4355L45.3099 59.6021C46.4557 60.1646 47.8516 59.6021 48.2682 58.373L49.2057 55.5396C49.4349 54.8521 49.2057 53.8521 48.7057 53.3521L43.8724 48.498C43.5182 48.1646 43.2474 47.4771 43.2474 46.998V40.9355C43.2474 40.0396 43.8932 39.623 44.7266 39.9563L55.1641 44.4563C56.8099 45.1646 58.1432 44.2896 58.1432 42.5188V39.7688C58.1432 38.3521 57.0807 36.7063 55.7682 36.1438Z" fill="white"/>
</svg>
