<svg width="78" height="78" viewBox="0 0 78 78" fill="none" xmlns="http://www.w3.org/2000/svg">
<circle cx="39" cy="39" r="39" fill="#004077"/>
<path d="M59.313 26.781C59.313 27.7537 58.6047 28.5603 57.7505 28.5603H20.2505C19.3963 28.5603 18.688 27.7537 18.688 26.781C18.688 25.8083 19.3963 25.0017 20.2505 25.0017H22.3755L23.1672 20.7076C23.9172 16.5559 25.4797 12.7363 31.688 12.7363H46.313C52.5213 12.7363 54.0838 16.5559 54.8338 20.7076L55.6255 25.0017H57.7505C58.6047 25.0017 59.313 25.8083 59.313 26.781ZM60.213 40.2136C59.9005 36.2992 58.9838 32.1237 52.2963 32.1237H25.7109C19.0234 32.1237 18.1276 36.2992 17.7942 40.2136L16.6276 54.6617C16.4817 56.4647 17.0026 58.2677 18.0859 59.62C19.1901 60.996 20.7526 61.7789 22.4192 61.7789H26.3359C29.7109 61.7789 30.3567 59.5726 30.7734 58.1254L31.1901 56.7019C31.6692 55.065 31.7942 54.6617 33.6692 54.6617H44.3359C46.2109 54.6617 46.2734 54.8989 46.8151 56.7019L47.2317 58.1254C47.6484 59.5726 48.2942 61.7789 51.6693 61.7789H55.5859C57.2318 61.7789 58.8151 60.996 59.9193 59.62C61.0026 58.2677 61.5234 56.4647 61.3776 54.6617L60.2109 40.2136H60.213ZM32.7547 45.172H26.5047C25.6505 45.172 24.9422 44.3654 24.9422 43.3927C24.9422 42.42 25.6505 41.6134 26.5047 41.6134H32.7547C33.6088 41.6134 34.3172 42.42 34.3172 43.3927C34.3172 44.3654 33.6088 45.172 32.7547 45.172ZM51.5047 45.172H45.2547C44.4005 45.172 43.6922 44.3654 43.6922 43.3927C43.6922 42.42 44.4005 41.6134 45.2547 41.6134H51.5047C52.3588 41.6134 53.0672 42.42 53.0672 43.3927C53.0672 44.3654 52.3588 45.172 51.5047 45.172Z" fill="white"/>
</svg>
