<svg width="78" height="78" viewBox="0 0 78 78" fill="none" xmlns="http://www.w3.org/2000/svg">
<circle cx="39" cy="39" r="39" fill="#579DCB"/>
<path d="M37.6745 16.7576C32.2161 16.7576 27.7786 21.8108 27.7786 28.0265C27.7786 34.1237 31.9661 39.0583 37.4245 39.2718C37.5911 39.2481 37.7578 39.2481 37.8828 39.2718H38.0286C40.5898 39.1745 43.0173 37.9467 44.798 35.8482C46.5786 33.7496 47.5728 30.9447 47.5703 28.0265C47.5703 21.8108 43.1328 16.7576 37.6745 16.7576ZM48.2578 45.58C42.4453 41.1674 32.9661 41.1674 27.112 45.58C24.4661 47.5966 23.0078 50.3249 23.0078 53.243C23.0078 56.161 24.4661 58.8656 27.0911 60.8584C30.0078 63.0885 33.8411 64.2035 37.6745 64.2035C41.5078 64.2035 45.3411 63.0885 48.2578 60.8584C50.8828 58.8419 52.3411 56.1373 52.3411 53.1955C52.3203 50.2774 50.8828 47.5729 48.2578 45.58ZM60.5703 29.4215C60.9036 34.024 58.0286 38.0571 54.0495 38.6028H53.9453C53.8203 38.6028 53.6953 38.6028 53.5911 38.6502C51.5703 38.7688 49.7161 38.0334 48.3203 36.6811C50.4661 34.4985 51.6953 31.2246 51.4453 27.6659C51.3024 25.8155 50.7505 24.0363 49.8411 22.4941C50.9328 21.8893 52.1372 21.596 53.3506 21.6396C54.564 21.6831 55.7498 22.0622 56.8059 22.744C57.8619 23.4259 58.7564 24.39 59.4123 25.5534C60.0681 26.7167 60.4655 28.0443 60.5703 29.4215Z" fill="white"/>
</svg>
